PathFileType	4	(X/Y/Z)	Walk7.trc
DataRate	CameraRate	NumFrames	NumMarkers	Units	OrigDataRate	OrigDataStartFrame	OrigNumFrames
200.000000	200.000000	4	59	mm	200.000000	436	495
Frame#	Times		LFHD		RFHD		C7		CLAV		RBack		RASI		RACR1		RUA1		RElbowM		RFA1		RWRR		RWRU		LACR1		LUA1		LFA1		LWRR		LWRU		RTH1		RTH3		LTH2		LTH4		LASI		LTH3		RTB1		RTB3		RCAR		LTB2		LCAR		T10		RPSI		LLFC		LBHD		LToe		RBHD		STRN		RElbow		RTB4		RTH2		LTB1		RTB2		LTB4		LElbow		LPSI		LElbowM		LTH1		LMMAL		LMT1		RTH4		LTB3		LCAL		LMT5		RLFC		LLMAL		RMT1		RToe		RCAL		RMMAL		RLMAL		RMT5
			X1	Y1	Z1	X2	Y2	Z2	X3	Y3	Z3	X4	Y4	Z4	X5	Y5	Z5	X6	Y6	Z6	X7	Y7	Z7	X8	Y8	Z8	X9	Y9	Z9	X10	Y10	Z10	X11	Y11	Z11	X12	Y12	Z12	X13	Y13	Z13	X14	Y14	Z14	X15	Y15	Z15	X16	Y16	Z16	X17	Y17	Z17	X18	Y18	Z18	X19	Y19	Z19	X20	Y20	Z20	X21	Y21	Z21	X22	Y22	Z22	X23	Y23	Z23	X24	Y24	Z24	X25	Y25	Z25	X26	Y26	Z26	X27	Y27	Z27	X28	Y28	Z28	X29	Y29	Z29	X30	Y30	Z30	X31	Y31	Z31	X32	Y32	Z32	X33	Y33	Z33	X34	Y34	Z34	X35	Y35	Z35	X36	Y36	Z36	X37	Y37	Z37	X38	Y38	Z38	X39	Y39	Z39	X40	Y40	Z40	X41	Y41	Z41	X42	Y42	Z42	X43	Y43	Z43	X44	Y44	Z44	X45	Y45	Z45	X46	Y46	Z46	X47	Y47	Z47	X48	Y48	Z48	X49	Y49	Z49	X50	Y50	Z50	X51	Y51	Z51	X52	Y52	Z52	X53	Y53	Z53	X54	Y54	Z54	X55	Y55	Z55	X56	Y56	Z56	X57	Y57	Z57	X58	Y58	Z58	X59	Y59	Z59

436	2.18	544.71	1420.3	-39.682	537.58	1408.3	55.982	367.83	1259.2	-7.5238	507.47	1175.2	-9.94	320.76	1136.9	112.5	500.99	828.69	164.03	438.29	1203.5	171.64	448.68	1063.1	252.88	388.26	903.48	220.72	504.97	824.41	296.68	528.68	726.08	264.62	491.53	725.21	326.91	424.72	1199.4	-197.22	430.58	1036.5	-270.21	443.7	829.98	-330.27	471.26	715.89	-323.61	421.97	723.31	-362.32	431.28	630.23	210.65	402.27	464.24	170.06	524.14	586.3	-163.65	475.74	563.9	-190.36	494.41	805.94	-163.59	494.36	483.36	-159.43	337.02	270.3	102.21	213.32	154.93	70.398	543.83	675.91	320.53	554.67	218.32	-107.34	455.75	670.71	-372.91	281.75	1058.7	6.5977	248	833.56	59.895	537.24	402.83	-121.72	413.35	1349.8	-68.069	712.49	38.927	-41.771	404.99	1341.6	64.562	561.68	1070.3	-7.4218	441.15	938.78	289.24	272.19	213.24	86.091	470.54	543.95	170.38	572.84	309	-54.65	241.99	235.2	134.78	573.98	221.52	-48.52	398.5	920.96	-281.99	238.56	831.38	-45.967	383.11	893.75	-213.62	455.69	645.48	-212.19	559.46	76.128	1.3443	665.13	39.559	-16.098	414.84	547.63	192.77	581.46	138.72	-43.955	497.43	42.237	-31.585	622.87	19.36	-97.307	353.72	383.96	152.4	538.91	58.093	-76.279	181.84	40.68	15.834	224.8	26.766	47.952	82.285	163.08	50.393	154	140.67	18.293	132.06	135.65	97.643	156.2	39.114	104.45
437	2.185	550.57	1421	-40.205	543.4	1408.9	55.451	373.52	1259.9	-8.193	513.19	1176	-10.569	326.43	1137.9	111.95	507.4	829	162.58	444.01	1204.5	170.94	454.05	1064.1	252.15	393.26	904.62	219.59	509.34	825.08	296	532.57	726.52	264.06	495.39	725.95	326.37	430.79	1200.3	-197.79	437.03	1037.4	-270.77	450.96	830.71	-330.4	479.25	716.84	-323.28	430.05	723.83	-362.2	438.61	630.48	210.51	412.31	463.93	170.69	529.66	586.83	-164.14	481.21	564.65	-190.99	500.83	807.31	-164.03	499.42	484.03	-160.09	346.62	270.24	103.86	220.97	157.09	71.54	547.32	676.17	319.98	557.16	218.06	-107.63	464.23	671.37	-372.47	287.47	1059.4	6.0768	254.17	833.53	60.202	541.65	402.97	-122.2	419.13	1350.6	-68.624	712.81	37.583	-41.309	410.73	1342.4	64.006	567.38	1071.2	-8.69	446.05	939.71	288.39	280.84	214.38	87.434	479.24	544.76	170.53	576.1	308.65	-54.971	250.52	237.34	135.51	576.17	221.16	-48.696	405.11	921.67	-282.46	244.23	832.05	-45.916	389.51	894.73	-214.14	461.59	646.35	-212.78	559.81	76.021	1.3877	665.3	38.529	-15.848	423.49	547.57	192.95	582.7	138.26	-43.955	497.56	42.459	-31.698	622.94	19.178	-97.53	364.56	383.52	153.3	539.32	58.056	-76.3	185.31	42.258	16.09	226.37	26.634	48.592	90.817	168.8	50.137	161.95	143.87	18.854	138.92	139.48	97.786	159.11	41.402	104.27
438	2.19	556.43	1421.6	-40.719	549.23	1409.5	54.931	379.16	1260.6	-8.8323	518.89	1176.8	-11.168	332.07	1138.9	111.42	513.8	829.29	161.15	449.68	1205.5	170.27	459.41	1065.1	251.47	398.25	905.8	218.47	513.71	825.81	295.33	536.46	727.01	263.49	499.28	726.74	325.83	436.84	1201.2	-198.32	443.52	1038.4	-271.29	458.29	831.51	-330.51	487.35	717.88	-322.93	438.25	724.41	-362.06	445.93	630.74	210.36	422.54	463.67	171.29	535.05	587.28	-164.66	486.51	565.35	-191.6	507.17	808.72	-164.51	504.26	484.65	-160.73	356.49	270.24	105.46	228.98	159.27	72.683	550.81	676.44	319.39	559.51	217.81	-107.88	472.83	672.09	-372.01	293.18	1060.2	5.5764	260.31	833.57	60.473	545.85	403.05	-122.66	424.9	1351.3	-69.162	713.06	36.47	-40.854	416.47	1343.2	63.47	573.05	1072	-9.9484	450.91	940.67	287.56	289.81	215.57	88.756	488.04	545.66	170.7	579.14	308.31	-55.233	259.38	239.51	136.22	578.19	220.8	-48.828	411.74	922.42	-282.92	249.87	832.77	-45.879	395.91	895.75	-214.66	467.37	647.18	-213.36	560.08	75.933	1.4378	665.41	37.672	-15.606	432.23	547.54	193.09	583.83	137.84	-43.924	497.66	42.642	-31.798	622.98	19.093	-97.718	375.59	383.11	154.17	539.67	58.032	-76.311	189.36	43.981	16.466	228.52	26.52	49.413	99.717	174.37	49.931	170.25	147.05	19.407	146.22	143.3	97.947	162.62	43.888	104.18
439	2.195	562.3	1422.2	-41.224	555.05	1410.2	54.422	384.77	1261.3	-9.4427	524.57	1177.6	-11.736	337.7	1139.8	110.9	520.16	829.56	159.78	455.3	1206.6	169.61	464.75	1066.1	250.83	403.23	907.01	217.37	518.08	826.57	294.69	540.35	727.55	262.92	503.18	727.56	325.29	442.85	1202.1	-198.81	450.05	1039.3	-271.8	465.67	832.35	-330.62	495.54	718.98	-322.56	446.54	725.04	-361.92	453.24	631.03	210.19	432.93	463.45	171.85	540.32	587.64	-165.2	491.65	565.99	-192.19	513.42	810.13	-165.01	508.88	485.2	-161.34	366.6	270.32	106.98	237.33	161.47	73.795	554.31	676.72	318.76	561.73	217.57	-108.1	481.54	672.86	-371.53	298.89	1060.9	5.0952	266.42	833.67	60.702	549.87	403.08	-123.09	430.65	1352.2	-69.681	713.25	35.557	-40.407	422.19	1344	62.955	578.68	1073	-11.185	455.74	941.67	286.76	299.09	216.82	90.022	496.93	546.63	170.88	581.98	307.96	-55.445	268.56	241.68	136.89	580.08	220.46	-48.928	418.39	923.2	-283.38	255.51	833.54	-45.857	402.28	896.79	-215.19	473.04	647.95	-213.93	560.3	75.857	1.4916	665.47	36.97	-15.374	441.03	547.53	193.2	584.85	137.44	-43.873	497.74	42.791	-31.889	623	19.084	-97.873	386.78	382.75	154.97	539.97	58.019	-76.314	194.06	45.832	16.978	231.35	26.438	50.433	108.93	179.73	49.775	178.86	150.18	19.937	153.93	147.07	98.119	166.78	46.562	104.21
